HIERARCHY
ROOT Hips
{
    OFFSET   0.000000   0.000000   0.000000
    CHANNELS 6 Xposition Yposition Zposition Zrotation Xrotation Yrotation
    JOINT Chest
    {
        OFFSET   0.000000   8.007240   0.000000
        CHANNELS 3 Zrotation Xrotation Yrotation
        JOINT Chest2
        {
            OFFSET   0.000000  22.077100   0.000000
            CHANNELS 3 Zrotation Xrotation Yrotation
            JOINT Neck
            {
                OFFSET   0.000000  23.254800   0.000000
                CHANNELS 3 Zrotation Xrotation Yrotation
                JOINT Head
                {
                    OFFSET   0.000000  14.370000   1.956600
                    CHANNELS 3 Zrotation Xrotation Yrotation
                    End Site
                    {
                        OFFSET   0.000000  19.566000   0.000000
                    }
                }
            }
            JOINT LeftCollar
            {
                OFFSET   3.911900  19.017000  -0.467064
                CHANNELS 3 Zrotation Xrotation Yrotation
                JOINT LeftShoulder
                {
                    OFFSET  10.383700   0.000000   0.000000
                    CHANNELS 3 Zrotation Xrotation Yrotation
                    JOINT LeftElbow
                    {
                        OFFSET  26.662100   0.001476   0.000517
                        CHANNELS 3 Zrotation Xrotation Yrotation
                        JOINT LeftWrist
                        {
                            OFFSET  28.869000  -0.000025  -0.000106
                            CHANNELS 3 Zrotation Xrotation Yrotation
                            JOINT LeftFinger0
                            {
                                OFFSET   2.044660  -2.323460   3.252850
                                CHANNELS 3 Zrotation Xrotation Yrotation
                                JOINT LeftFinger01
                                {
                                    OFFSET   3.088130   0.000000   0.000000
                                    CHANNELS 3 Zrotation Xrotation Yrotation
                                    JOINT LeftFinger02
                                    {
                                        OFFSET   2.639460   0.000000   0.000000
                                        CHANNELS 3 Zrotation Xrotation Yrotation
                                        End Site
                                        {
                                            OFFSET   2.582190   0.000000   0.000000
                                        }
                                    }
                                }
                            }
                            JOINT LeftFinger1
                            {
                                OFFSET   8.364480   0.000000   3.252850
                                CHANNELS 3 Zrotation Xrotation Yrotation
                                JOINT LeftFinger11
                                {
                                    OFFSET   4.646930   0.000000   0.000000
                                    CHANNELS 3 Zrotation Xrotation Yrotation
                                    JOINT LeftFinger12
                                    {
                                        OFFSET   2.323460   0.000000   0.000000
                                        CHANNELS 3 Zrotation Xrotation Yrotation
                                        End Site
                                        {
                                            OFFSET   2.273050   0.000000   0.000000
                                        }
                                    }
                                }
                            }
                            JOINT LeftFinger2
                            {
                                OFFSET   8.364490   0.000015   1.078090
                                CHANNELS 3 Zrotation Xrotation Yrotation
                                JOINT LeftFinger21
                                {
                                    OFFSET   5.111620   0.000000   0.000000
                                    CHANNELS 3 Zrotation Xrotation Yrotation
                                    JOINT LeftFinger22
                                    {
                                        OFFSET   2.788160   0.000016   0.000000
                                        CHANNELS 3 Zrotation Xrotation Yrotation
                                        End Site
                                        {
                                            OFFSET   2.727660   0.000000   0.000000
                                        }
                                    }
                                }
                            }
                            JOINT LeftFinger3
                            {
                                OFFSET   7.899780   0.000017  -1.078090
                                CHANNELS 3 Zrotation Xrotation Yrotation
                                JOINT LeftFinger31
                                {
                                    OFFSET   4.646930   0.000000   0.000000
                                    CHANNELS 3 Zrotation Xrotation Yrotation
                                    JOINT LeftFinger32
                                    {
                                        OFFSET   2.323470   0.000000   0.000000
                                        CHANNELS 3 Zrotation Xrotation Yrotation
                                        End Site
                                        {
                                            OFFSET   2.273050   0.000000   0.000000
                                        }
                                    }
                                }
                            }
                            JOINT LeftFinger4
                            {
                                OFFSET   7.435090   0.000000  -3.252850
                                CHANNELS 3 Zrotation Xrotation Yrotation
                                JOINT LeftFinger41
                                {
                                    OFFSET   3.717550   0.000000   0.000000
                                    CHANNELS 3 Zrotation Xrotation Yrotation
                                    JOINT LeftFinger42
                                    {
                                        OFFSET   1.858770   0.000000   0.000000
                                        CHANNELS 3 Zrotation Xrotation Yrotation
                                        End Site
                                        {
                                            OFFSET   1.818440   0.000000   0.000000
                                        }
                                    }
                                }
                            }
                        }
                    }
                }
            }
            JOINT RightCollar
            {
                OFFSET  -3.911900  19.017000  -0.467063
                CHANNELS 3 Zrotation Xrotation Yrotation
                JOINT RightShoulder
                {
                    OFFSET -10.383700   0.000019   0.000000
                    CHANNELS 3 Zrotation Xrotation Yrotation
                    JOINT RightElbow
                    {
                        OFFSET -26.662100   0.001175   0.000102
                        CHANNELS 3 Zrotation Xrotation Yrotation
                        JOINT RightWrist
                        {
                            OFFSET -28.869000   0.000016  -0.000079
                            CHANNELS 3 Zrotation Xrotation Yrotation
                            JOINT RightFinger0
                            {
                                OFFSET  -2.044660  -2.323490   3.252850
                                CHANNELS 3 Zrotation Xrotation Yrotation
                                JOINT RightFinger01
                                {
                                    OFFSET  -3.088140   0.000000   0.000000
                                    CHANNELS 3 Zrotation Xrotation Yrotation
                                    JOINT RightFinger02
                                    {
                                        OFFSET  -2.639460   0.000000   0.000000
                                        CHANNELS 3 Zrotation Xrotation Yrotation
                                        End Site
                                        {
                                            OFFSET  -2.582190   0.000000   0.000000
                                        }
                                    }
                                }
                            }
                            JOINT RightFinger1
                            {
                                OFFSET  -8.364480   0.000000   3.252850
                                CHANNELS 3 Zrotation Xrotation Yrotation
                                JOINT RightFinger11
                                {
                                    OFFSET  -4.646930   0.000000   0.000000
                                    CHANNELS 3 Zrotation Xrotation Yrotation
                                    JOINT RightFinger12
                                    {
                                        OFFSET  -2.323470   0.000000   0.000000
                                        CHANNELS 3 Zrotation Xrotation Yrotation
                                        End Site
                                        {
                                            OFFSET  -2.273050   0.000000   0.000000
                                        }
                                    }
                                }
                            }
                            JOINT RightFinger2
                            {
                                OFFSET  -8.364480   0.000000   1.078090
                                CHANNELS 3 Zrotation Xrotation Yrotation
                                JOINT RightFinger21
                                {
                                    OFFSET  -5.111620   0.000000   0.000000
                                    CHANNELS 3 Zrotation Xrotation Yrotation
                                    JOINT RightFinger22
                                    {
                                        OFFSET  -2.788160   0.000000   0.000000
                                        CHANNELS 3 Zrotation Xrotation Yrotation
                                        End Site
                                        {
                                            OFFSET  -2.727660   0.000000   0.000000
                                        }
                                    }
                                }
                            }
                            JOINT RightFinger3
                            {
                                OFFSET  -7.899780   0.000000  -1.078090
                                CHANNELS 3 Zrotation Xrotation Yrotation
                                JOINT RightFinger31
                                {
                                    OFFSET  -4.646930   0.000000   0.000000
                                    CHANNELS 3 Zrotation Xrotation Yrotation
                                    JOINT RightFinger32
                                    {
                                        OFFSET  -2.323470   0.000000   0.000000
                                        CHANNELS 3 Zrotation Xrotation Yrotation
                                        End Site
                                        {
                                            OFFSET  -2.273050   0.000000   0.000000
                                        }
                                    }
                                }
                            }
                            JOINT RightFinger4
                            {
                                OFFSET  -7.435090   0.000000  -3.252850
                                CHANNELS 3 Zrotation Xrotation Yrotation
                                JOINT RightFinger41
                                {
                                    OFFSET  -3.717550   0.000000   0.000000
                                    CHANNELS 3 Zrotation Xrotation Yrotation
                                    JOINT RightFinger42
                                    {
                                        OFFSET  -1.858770   0.000000   0.000000
                                        CHANNELS 3 Zrotation Xrotation Yrotation
                                        End Site
                                        {
                                            OFFSET  -1.818440   0.000000   0.000000
                                        }
                                    }
                                }
                            }
                        }
                    }
                }
            }
        }
    }
    JOINT LeftHip
    {
        OFFSET   9.783040   0.000000   0.000000
        CHANNELS 3 Zrotation Xrotation Yrotation
        JOINT LeftKnee
        {
            OFFSET   0.000032 -41.789100  -0.002222
            CHANNELS 3 Zrotation Xrotation Yrotation
            JOINT LeftAnkle
            {
                OFFSET   0.000087 -41.133200  -0.000135
                CHANNELS 3 Zrotation Xrotation Yrotation
                JOINT LeftToe
                {
                    OFFSET   0.000000  -6.358960  14.674500
                    CHANNELS 3 Zrotation Xrotation Yrotation
                    End Site
                    {
                        OFFSET   0.000000   0.000000   3.913200
                    }
                }
            }
        }
    }
    JOINT RightHip
    {
        OFFSET  -9.783040   0.000000   0.000000
        CHANNELS 3 Zrotation Xrotation Yrotation
        JOINT RightKnee
        {
            OFFSET   0.000047 -41.789100  -0.000896
            CHANNELS 3 Zrotation Xrotation Yrotation
            JOINT RightAnkle
            {
                OFFSET  -0.000117 -41.133300  -0.000248
                CHANNELS 3 Zrotation Xrotation Yrotation
                JOINT RightToe
                {
                    OFFSET   0.000000  -6.358970  14.674500
                    CHANNELS 3 Zrotation Xrotation Yrotation
                    End Site
                    {
                        OFFSET   0.000000   0.000000   3.913200
                    }
                }
            }
        }
    }
}
MOTION
Frames: 4
Frame Time:   0.016667
  0.440553  89.549400   1.066580  -1.047000  -2.147470   2.330650   0.642050   1.739500  -0.863052   1.311160   3.469030  -1.746760   0.648489  -0.146450   0.003328   1.066820  -0.297083   4.737480  -6.469050   3.000940   1.413110 -70.935800  10.288100  -5.418740  -2.287770  -3.052220  -6.254160   5.060180  -6.715150   3.668720  41.204400  30.298600 -58.098200 -26.697700  -0.004803  -0.000512  -8.348890   0.006254  -0.000412 -28.924500   2.241350  -4.048310 -23.730300   0.000069  -0.005294 -16.611200  -0.004317  -0.003226 -27.941600   0.237913  -0.445349 -31.661000   0.003018  -0.006583 -21.086200   0.003213  -0.002425 -27.292500  -2.442460   4.720810 -28.712000  -0.002971  -0.007841 -19.122200  -0.004441   0.001864 -29.160100  -2.594420   4.638900 -43.897900  -0.002215  -0.001436 -29.236000   0.001483   0.003557   8.631730   0.933576   6.848040  70.908700  -1.314100   0.121024   1.192190  -7.386920   4.113620 -12.639900 -11.426000   1.454060 -41.287100  30.585000  65.272100  24.618000   0.001088  -0.002718   7.308990   0.002776  -0.001425  27.168600   7.368910  14.030800  22.971800   0.001847   0.007282  16.080200   0.002608   0.004552  27.423900   5.616480  10.678700  31.736000   0.002835   0.007522  21.136200   0.003378   0.003628  27.671300   4.668760   8.811080  32.225000   0.004892  -0.003444  21.461800   0.005358   0.004463  31.744200   0.935666   1.494030  47.634700  -0.002527   0.006224  31.724700   0.005889   0.001356   3.283240   4.469090   3.779120   0.875387   0.236280  10.349100  -5.350020  -2.196990   2.498710  -0.000000   0.000000  -0.000000  -0.846967   2.212120  -2.422050   1.119120   2.085990  -9.096550  -1.091440  -2.700220  -2.852560   0.000000   0.000000   0.000000
  0.445900  89.549400   1.081090  -1.047100  -2.139590   2.337660   0.642036   1.736430  -0.863040   1.311080   3.462890  -1.746700   0.648440  -0.146313   0.003355   1.066780  -0.296682   4.738850  -6.468990   3.000900   1.413100 -70.933700  10.281500  -5.413120  -2.286930  -3.044800  -6.254530   5.059800  -6.727410   3.658850  41.213500  30.268000 -58.089800 -26.652100  -0.004797  -0.000512  -8.326100   0.006248  -0.000416 -28.914800   2.237390  -4.042770 -23.722000   0.000071  -0.005295 -16.605300  -0.004315  -0.003228 -27.941600   0.235975  -0.443078 -31.652200   0.003019  -0.006582 -21.081000   0.003214  -0.002427 -27.292100  -2.443930   4.724060 -28.702400  -0.002971  -0.007841 -19.115900  -0.004439   0.001863 -29.153800  -2.595870   4.642290 -43.888500  -0.002214  -0.001437 -29.229700   0.001484   0.003557   8.631660   0.933691   6.848020  70.908900  -1.309230   0.121055   1.191540  -7.378680   4.113660 -12.643400 -11.426400   1.466550 -41.376100  30.572300  65.434700  24.400600   0.001087  -0.002714   7.200300   0.002775  -0.001422  27.158900   7.362150  14.024000  22.962300   0.001846   0.007286  16.073300   0.002611   0.004556  27.423900   5.616480  10.678700  31.719800   0.002831   0.007524  21.126500   0.003378   0.003624  27.671300   4.668750   8.811090  32.237600   0.004892  -0.003448  21.470500   0.005358   0.004465  31.751500   0.935657   1.494030  47.645700  -0.002533   0.006225  31.732100   0.005890   0.001356   3.283310   4.470210   3.779130   0.876517   0.227596  10.349300  -5.349970  -2.196990   2.492820   0.000000   0.000000   0.000000  -0.846969   2.208270  -2.423030   1.118320   2.086150  -9.095820  -1.092080  -2.706710  -2.859960  -0.000000   0.000000  -0.000000
  0.454799  89.549500   1.104970  -1.047230  -2.126300   2.349670   0.641999   1.731110  -0.863003   1.310920   3.452230  -1.746560   0.648343  -0.146176   0.003382   1.066710  -0.296281   4.741540  -6.468890   3.000860   1.413090 -70.930000  10.269400  -5.403860  -2.285670  -3.034100  -6.254890   5.059430  -6.746780   3.645360  41.225100  30.234000 -58.086300 -26.596100  -0.004791  -0.000512  -8.298080   0.006240  -0.000420 -28.902500   2.229350  -4.030350 -23.711700   0.000074  -0.005299 -16.598200  -0.004312  -0.003231 -27.941700   0.230738  -0.434981 -31.643500   0.003022  -0.006578 -21.074500   0.003219  -0.002431 -27.291000  -2.448540   4.733550 -28.689300  -0.002970  -0.007843 -19.107100  -0.004435   0.001860 -29.144200  -2.600530   4.651910 -43.874700  -0.002210  -0.001441 -29.220500   0.001488   0.003557   8.631550   0.933867   6.848010  70.909100  -1.300860   0.121128   1.190850  -7.370440   4.113780 -12.649700 -11.429000   1.483640 -41.469800  30.550200  65.606300  24.145200   0.001083  -0.002706   7.072600   0.002772  -0.001417  27.147300   7.351120  14.010700  22.951500   0.001845   0.007297  16.066100   0.002618   0.004564  27.424000   5.616460  10.678700  31.703600   0.002823   0.007527  21.114600   0.003374   0.003616  27.671300   4.668740   8.811100  32.256400   0.004891  -0.003453  21.482700   0.005360   0.004467  31.763100   0.935632   1.494030  47.663200  -0.002544   0.006229  31.743700   0.005894   0.001357   3.282960   4.477620   3.779240   0.877861   0.202771  10.349800  -5.348410  -2.196940   2.483450  -0.000000   0.000000  -0.000000  -0.847028   2.201360  -2.425850   1.116780   2.087270  -9.091720  -1.093070  -2.717590  -2.874460   0.000000   0.000000   0.000000
  0.461838  89.549500   1.123520  -1.047210  -2.115250   2.360040   0.641925   1.725580  -0.862930   1.310670   3.441180  -1.746340   0.648233  -0.146228   0.003364   1.066690  -0.296380   4.744940  -6.468750   3.000920   1.413160 -70.926700  10.254200  -5.396470  -2.284780  -3.028420  -6.252020   5.059850  -6.762480   3.640710  41.227800  30.230300 -58.093300 -26.584100  -0.004794  -0.000511  -8.292040   0.006235  -0.000404 -28.900700   2.218320  -4.010700 -23.709600   0.000080  -0.005306 -16.597000  -0.004307  -0.003236 -27.941800   0.221205  -0.415979 -31.645000   0.003029  -0.006573 -21.073300   0.003226  -0.002437 -27.289000  -2.457900   4.753410 -28.685700  -0.002966  -0.007846 -19.104400  -0.004429   0.001856 -29.139100  -2.610210   4.671450 -43.868300  -0.002205  -0.001447 -29.216300   0.001493   0.003557   8.631450   0.934000   6.848010  70.908300  -1.292880   0.121250   1.190800  -7.370760   4.113970 -12.657100 -11.436700   1.489500 -41.476300  30.527600  65.601100  24.100800   0.001074  -0.002699   7.050420   0.002768  -0.001410  27.147300   7.342440  13.994700  22.950000   0.001851   0.007316  16.065800   0.002624   0.004576  27.424100   5.616440  10.678600  31.707600   0.002816   0.007529  21.112300   0.003364   0.003607  27.671300   4.668710   8.811110  32.268500   0.004898  -0.003456  21.487900   0.005367   0.004469  31.772900   0.935590   1.494020  47.677900  -0.002558   0.006237  31.753400   0.005903   0.001359   3.279800   4.501640   3.779600   0.873921   0.146896  10.351000  -5.341410  -2.179560   2.477370  -0.000000   0.000000   0.000000  -0.848132   2.193040  -2.432270   1.115180   2.094110  -9.080810  -1.089580  -2.726460  -2.891360  -0.000000   0.000000  -0.000000
